<svg width="441" height="150" viewBox="0 0 441 150" fill="none" xmlns="http://www.w3.org/2000/svg">
<path d="M146.887 56.3232V98.476H126.109V60.9301C126.109 57.5908 125.031 54.8546 122.874 52.7303C120.717 50.6061 118.021 49.5396 114.777 49.5396C112.62 49.5396 110.681 50.0116 108.976 50.9645C107.271 51.9086 105.914 53.2461 104.932 54.9595C103.94 56.6729 103.444 58.666 103.444 60.9214V98.4673H82.6668V0.0786743H103.444V37.5983C104.784 36.3832 106.262 35.3255 107.897 34.4338C111.768 32.3096 116.168 31.2518 121.117 31.2518C126.066 31.2518 130.736 32.3096 134.606 34.4338C138.477 36.5581 141.486 39.4953 143.652 43.2455C145.808 46.9957 146.887 51.3579 146.887 56.3232Z" fill="#000033"/>
<path d="M219.735 46.9783C216.856 42.0129 212.942 38.1229 207.993 35.3167C203.045 32.5106 197.287 31.112 190.729 31.112C184.172 31.112 178.092 32.6068 172.787 35.5877C167.473 38.5687 163.299 42.6598 160.237 47.8524C157.176 53.0538 155.645 58.902 155.645 65.4059C155.645 71.9098 157.219 78.0553 160.368 83.2916C163.516 88.5366 167.83 92.6278 173.318 95.5563C178.806 98.4935 185.102 99.9621 192.208 99.9621C197.783 99.9621 202.862 99.0355 207.454 97.191C212.038 95.3377 215.951 92.4704 219.187 88.5803L207.724 77.1898C205.741 79.4539 203.445 81.1411 200.844 82.2688C198.235 83.3965 195.356 83.9647 192.208 83.9647C188.694 83.9647 185.668 83.2216 183.093 81.7268C180.536 80.2319 178.553 78.0902 177.162 75.2928C176.727 74.4187 176.362 73.5008 176.057 72.5392L222.961 72.3119C223.414 70.6859 223.701 69.2173 223.84 67.9061C223.979 66.6035 224.04 65.3098 224.04 64.0422C224.04 57.6257 222.605 51.9348 219.726 46.9608L219.735 46.9783ZM176.057 58.1765C176.327 57.2936 176.649 56.4456 177.031 55.6501C178.336 52.9401 180.18 50.8159 182.563 49.2861C184.946 47.7475 187.755 46.9783 190.999 46.9783C193.965 46.9783 196.513 47.6601 198.627 49.0151C200.74 50.3701 202.34 52.2845 203.419 54.7759C203.845 55.7637 204.193 56.839 204.462 58.0191L176.066 58.1852L176.057 58.1765Z" fill="#000033"/>
<path d="M265.604 99.9709C258.768 99.9709 252.601 98.4848 247.122 95.4951C241.634 92.5141 237.338 88.4055 234.242 83.1604C231.137 77.9241 229.589 72.0409 229.589 65.537C229.589 59.0332 231.163 53.0451 234.311 47.8524C237.46 42.6598 241.773 38.5687 247.261 35.5877C252.749 32.6068 258.907 31.112 265.743 31.112C270.961 31.112 275.701 31.9949 279.98 33.752C284.25 35.5178 288.051 38.1141 291.382 41.5409L278.023 55.0994C276.493 53.386 274.718 52.1184 272.692 51.3054C270.665 50.4925 268.352 50.0816 265.743 50.0816C262.864 50.0816 260.281 50.7372 257.985 52.0485C255.689 53.3598 253.889 55.1693 252.593 57.4684C251.288 59.7762 250.636 62.4162 250.636 65.3972C250.636 68.3781 251.288 71.1842 252.593 73.527C253.897 75.8785 255.715 77.7056 258.055 79.0168C260.394 80.3281 262.96 80.9837 265.743 80.9837C268.526 80.9837 270.848 80.5292 272.962 79.6288C275.075 78.7284 276.893 77.4171 278.423 75.695L291.782 88.9737C288.277 92.5928 284.381 95.3202 280.111 97.1735C275.84 99.0268 271.005 99.9534 265.604 99.9534V99.9709Z" fill="#000033"/>
<path d="M330.772 99.9709C323.936 99.9709 317.822 98.4323 312.421 95.3639C307.028 92.2956 302.749 88.1345 299.61 82.8982C296.461 77.6619 294.887 71.7874 294.887 65.2748C294.887 58.7622 296.435 53.0713 299.54 47.9224C302.645 42.7735 306.898 38.6823 312.29 35.6577C317.691 32.633 323.849 31.1207 330.772 31.1207C337.695 31.1207 343.609 32.6155 349.053 35.5965C354.498 38.5774 358.785 42.6686 361.934 47.8612C365.082 53.0538 366.656 58.8671 366.656 65.2835C366.656 71.7 365.082 77.7755 361.934 82.9681C358.785 88.1695 354.515 92.3043 349.114 95.3727C343.713 98.4498 337.599 99.9796 330.763 99.9796L330.772 99.9709ZM330.772 80.9925C333.651 80.9925 336.216 80.3631 338.46 79.0955C340.704 77.828 342.435 76.0009 343.652 73.6057C344.87 71.2104 345.47 68.4743 345.47 65.4059C345.47 62.3376 344.844 59.785 343.583 57.4771C342.322 55.1693 340.591 53.3685 338.39 52.0572C336.181 50.746 333.642 50.0903 330.772 50.0903C327.902 50.0903 325.327 50.746 323.083 52.0572C320.831 53.3685 319.083 55.1955 317.822 57.5471C316.561 59.8986 315.934 62.5211 315.934 65.4059C315.934 68.483 316.561 71.2104 317.822 73.6057C319.083 76.0009 320.831 77.828 323.083 79.0955C325.336 80.3631 327.893 80.9925 330.772 80.9925Z" fill="#000033"/>
<path d="M440.991 56.3232V98.476H420.214V60.9301C420.214 57.5908 419.135 54.8546 416.978 52.7303C414.821 50.6061 412.117 49.5396 408.881 49.5396C406.724 49.5396 404.785 50.0117 403.08 50.9645C401.376 51.9174 400.019 53.2461 399.036 54.9595C398.045 56.6729 397.549 58.666 397.549 60.9214V98.4673H376.771V32.6068H397.549V37.8781C399.01 36.5493 400.654 35.4042 402.471 34.4338C406.472 32.3096 410.995 31.2518 416.03 31.2518C420.796 31.2518 425.067 32.3795 428.85 34.6436C432.625 36.899 435.59 39.9499 437.756 43.7875C439.913 47.6252 440.991 51.8125 440.991 56.3232Z" fill="#000033"/>
<path d="M52.5832 47.7213V73.6581C52.5832 76.2107 53.2529 78.0553 54.6358 79.2704C55.9752 80.4855 57.8537 81.281 60.2368 81.6569C62.6198 82.0328 65.3768 82.2426 68.5513 82.2426L61.5762 100.05C51.9657 99.8397 44.6514 97.7417 39.6418 93.6768C34.667 89.5769 32.1622 83.9559 32.1622 76.7527V48.1759L37.885 42.4151L42.364 37.9043L37.885 33.3936L32.1622 27.6327V0H52.5832V28.0698H73.3087L65.4812 47.7213H52.5919H52.5832Z" fill="#000033"/>
<path fill-rule="evenodd" clip-rule="evenodd" d="M37.2675 37.8868L32.7884 42.3976L11.2455 64.0772L0 52.8265L14.8722 37.8431L0 22.9384L11.2368 11.6877L32.7797 33.3673L37.2588 37.8781L37.2675 37.8868Z" fill="#000033"/>
</svg>
