<?xml version="1.0" encoding="UTF-8"?> <svg xmlns="http://www.w3.org/2000/svg" xmlns:xlink="http://www.w3.org/1999/xlink" version="1.1" id="Layer_1" x="0px" y="0px" width="432.1px" height="129.7px" viewBox="0 0 432.1 129.7" style="enable-background:new 0 0 432.1 129.7;" xml:space="preserve"> <style type="text/css"> .st0{fill:#1C75BC;} </style> <g> <g> <path d="M39.3,61.8H24.2v23c0,3.3-0.8,5.8-2.3,7.5c-1.6,1.7-3.5,2.5-5.9,2.5c-2.5,0-4.5-0.8-6-2.5c-1.5-1.7-2.3-4.1-2.3-7.4V22.3 c0-3.6,0.8-6.2,2.5-7.8c1.7-1.6,4.3-2.3,7.9-2.3h21.1c6.2,0,11,0.5,14.4,1.4c3.3,0.9,6.2,2.5,8.6,4.6c2.4,2.1,4.3,4.8,5.5,7.9 c1.3,3.1,1.9,6.6,1.9,10.5c0,8.3-2.5,14.5-7.6,18.8C57,59.6,49.4,61.8,39.3,61.8z M35.3,24.6H24.2v24.8h11.1 c3.9,0,7.1-0.4,9.7-1.2c2.6-0.8,4.6-2.1,6-4c1.4-1.8,2-4.3,2-7.3c0-3.6-1.1-6.5-3.2-8.7C47.5,25.8,42.7,24.6,35.3,24.6z"></path> <path d="M237.1,80.6L224,31.9l-13.3,48.7c-1,3.7-1.9,6.3-2.5,7.9c-0.6,1.6-1.7,3-3.2,4.3c-1.5,1.3-3.5,1.9-6,1.9 c-2,0-3.7-0.4-5-1.1s-2.4-1.8-3.2-3.2c-0.8-1.4-1.5-3-2-4.9c-0.5-1.9-1-3.7-1.4-5.3L174,25.6c-0.8-3.2-1.2-5.6-1.2-7.3 c0-2.1,0.7-3.9,2.2-5.3c1.5-1.4,3.3-2.2,5.5-2.2c3,0,5,1,6,2.9c1,1.9,1.9,4.7,2.7,8.4l10.6,47.4l11.9-44.3c0.9-3.4,1.7-6,2.4-7.8 c0.7-1.8,1.8-3.3,3.4-4.6c1.6-1.3,3.7-1.9,6.5-1.9c2.8,0,4.9,0.7,6.4,2c1.5,1.3,2.6,2.8,3.2,4.4c0.6,1.6,1.4,4.2,2.4,7.9l12,44.3 l10.6-47.4c0.5-2.5,1-4.4,1.5-5.8c0.5-1.4,1.3-2.7,2.4-3.8c1.1-1.1,2.8-1.7,4.9-1.7c2.1,0,4,0.7,5.5,2.1c1.5,1.4,2.2,3.2,2.2,5.3 c0,1.5-0.4,3.9-1.2,7.3l-13.5,54.6c-0.9,3.7-1.7,6.4-2.3,8.1s-1.6,3.2-3.1,4.5c-1.5,1.3-3.5,1.9-6.2,1.9c-2.5,0-4.5-0.6-6-1.9 c-1.5-1.3-2.6-2.7-3.2-4.2C239,87.1,238.2,84.4,237.1,80.6z"></path> <path d="M337.1,24.9h-37v19.9h34.1c2.5,0,4.4,0.6,5.6,1.7c1.2,1.1,1.9,2.6,1.9,4.5c0,1.8-0.6,3.3-1.8,4.5 c-1.2,1.2-3.1,1.7-5.6,1.7h-34.1v23.1h38.3c2.6,0,4.5,0.6,5.8,1.8c1.3,1.2,2,2.8,2,4.8c0,1.9-0.7,3.5-2,4.7 c-1.3,1.2-3.3,1.8-5.8,1.8h-44.7c-3.6,0-6.2-0.8-7.7-2.4c-1.6-1.6-2.4-4.2-2.4-7.7v-61c0-2.4,0.4-4.3,1.1-5.8s1.8-2.6,3.3-3.3 c1.5-0.7,3.4-1,5.7-1h43.4c2.6,0,4.6,0.6,5.8,1.7c1.3,1.2,1.9,2.7,1.9,4.6c0,1.9-0.6,3.5-1.9,4.6S339.7,24.9,337.1,24.9z"></path> <path d="M379,58.7h-5.8v26.1c0,3.4-0.8,6-2.3,7.6c-1.5,1.6-3.5,2.4-5.9,2.4c-2.6,0-4.7-0.8-6.1-2.5c-1.4-1.7-2.2-4.2-2.2-7.5V22.3 c0-3.5,0.8-6.1,2.4-7.7c1.6-1.6,4.2-2.4,7.7-2.4h26.7c3.7,0,6.8,0.2,9.5,0.5c2.6,0.3,5,1,7.1,1.9c2.5,1.1,4.8,2.6,6.8,4.6 c2,2,3.4,4.3,4.5,6.9c1,2.6,1.5,5.4,1.5,8.4c0,6.1-1.7,10.9-5.1,14.5c-3.4,3.6-8.6,6.2-15.5,7.7c2.9,1.5,5.7,3.8,8.4,6.9 c2.7,3,5,6.2,7.1,9.7c2.1,3.4,3.7,6.5,4.9,9.2c1.2,2.8,1.7,4.6,1.7,5.7c0,1.1-0.3,2.1-1,3.2c-0.7,1.1-1.6,1.9-2.8,2.5 c-1.2,0.6-2.5,0.9-4.1,0.9c-1.8,0-3.4-0.4-4.7-1.3c-1.3-0.9-2.3-2-3.2-3.3c-0.9-1.3-2.1-3.3-3.7-5.9l-6.6-11 c-2.4-4-4.5-7.1-6.3-9.2c-1.9-2.1-3.8-3.5-5.7-4.3C384.3,59.1,381.9,58.7,379,58.7z M388.4,24.6h-15.2v22.3h14.7 c3.9,0,7.3-0.3,10-1c2.7-0.7,4.8-1.8,6.2-3.5c1.4-1.6,2.1-3.9,2.1-6.8c0-2.3-0.6-4.2-1.7-6c-1.1-1.7-2.7-3-4.8-3.8 C397.8,25,394,24.6,388.4,24.6z"></path> </g> <g> <path class="st0" d="M109.5,75c11.4,5.3,24.4,3.1,33.5-5.6c9-8.7,11.5-21.6,6.5-33.3c-1.1-2.5-2.3-4.9-1.4-7.7 c1-3.1,3.6-5.3,6.8-5.6c3.6-0.3,6.2,1.3,7.9,4.4c4.4,8.6,6,17.7,4.6,27.3c-4,27.4-31.2,45-57.8,37.5c-25-7.1-39.2-34.6-30.4-59 c5.5-15.2,16.1-24.7,31.5-29.1c2.5-0.7,5-0.9,7.3,0.5c2.9,1.8,4.3,4.5,3.8,7.9c-0.5,3.4-2.6,5.6-6,6.5 c-7.3,1.8-13.4,5.5-17.8,11.7C86.9,45.7,92.5,67.1,109.5,75z"></path> <path class="st0" d="M132.5,45.3c-1.5,3.2-6.2,4.9-9.9,3.5c-4.3-1.6-6.7-6-5.4-9.9c0.5-1.4,10.3-22.4,14.6-31.6 c2.2-4.7,7-6.6,11.4-4.6c4.3,2,5.9,6.8,3.7,11.5C144.5,19.3,134.9,40.1,132.5,45.3z"></path> </g> <g> <path d="M23,110.8c-1.2-2-3.8-2.6-6-2.7c-2.6,0-5.9,0.8-5.9,3.8c0,2.5,2.7,3.1,6,3.7c4.1,0.7,8.3,1.6,8.3,6.1c0,4.7-4.6,6-8.4,6 c-3.5,0-7.1-1.3-8.8-4.7l1.8-1c1.4,2.7,4.4,3.6,6.9,3.6c2.6,0,6.3-0.7,6.3-4.1c0-2.8-3.1-3.6-6.4-4.1c-4-0.7-7.9-1.6-7.9-5.6 c-0.1-4.4,4.4-5.8,8-5.8c2.9,0,6,0.8,7.8,3.7L23,110.8z"></path> <path d="M91.1,106.4v12.8c0,5.7-3.7,8.4-8.3,8.4c-4.6,0-8.4-2.7-8.4-8.4v-12.8h2.1v12.8c0,4,2.7,6.4,6.3,6.4 c3.2,0,6.2-2.1,6.2-6.4v-12.8H91.1z"></path> <path d="M143.8,120.5v7h-2.1v-21c3.1,0,6.3,0,9.4,0c9.4,0,9.4,14,0,14H143.8z M143.8,118.5h7.3c6.6,0,6.6-10,0-10h-7.3V118.5z"></path> <path d="M209.1,120.5v7H207v-21c3.1,0,6.3,0,9.4,0c9.4,0,9.4,14,0,14H209.1z M209.1,118.5h7.3c6.6,0,6.6-10,0-10h-7.3V118.5z"></path> <path d="M292.3,117c0,5.5-3.5,10.8-10.6,10.8c-7.1,0-10.7-5.3-10.7-10.9c0-5.9,3.8-10.9,10.7-10.9 C288.8,106.1,292.4,111.4,292.3,117z M281.7,125.9c5.7,0,8.5-4.3,8.5-8.8c0-4.7-2.8-8.9-8.5-8.9c-5.6,0-8.6,4-8.5,8.9 C273.2,121.6,276,125.9,281.7,125.9z"></path> <path d="M359,127.4h-2.7l-7-7.7h-5.4v7.7h-2.1v-21c3.1,0,6.3,0,9.4,0c4.7,0,6.9,3.1,7,6.7c0,3.3-1.9,6.2-6.3,6.5L359,127.4z M343.9,108.4v9.3h7.2c3.4,0,5-2,5-4.6c0-2.6-1.6-4.7-4.9-4.7H343.9z"></path> <path d="M412.6,108.4h-7.4v-2c5.9,0,11,0,16.9,0v2h-7.4v19h-2.1V108.4z"></path> </g> </g> </svg> 